<?xml version="1.0" standalone="no"?>
<!DOCTYPE svg PUBLIC "-//W3C//DTD SVG 20010904//EN"
 "http://www.w3.org/TR/2001/REC-SVG-20010904/DTD/svg10.dtd">
<svg version="1.0" xmlns="http://www.w3.org/2000/svg"
 width="1528.000000pt" height="851.000000pt" viewBox="0 0 1528.000000 851.000000"
 preserveAspectRatio="xMidYMid meet">

<g transform="translate(0.000000,851.000000) scale(0.100000,-0.100000)"
fill="#000000" stroke="none">
<path d="M7730 6989 c0 -6 9 -24 21 -41 l21 -29 -46 32 c-25 18 -49 30 -52 26
-4 -4 6 -26 22 -49 36 -53 51 -86 31 -70 -14 12 -117 28 -117 19 0 -4 15 -23
33 -44 35 -41 14 -29 -43 24 -38 35 -93 53 -104 34 -5 -8 -132 -11 -427 -11
l-419 0 0 -70 c0 -40 6 -86 15 -107 17 -41 19 -67 5 -58 -15 10 -12 -6 6 -26
15 -16 14 -17 -7 -12 -17 5 -20 3 -14 -7 6 -10 4 -12 -8 -7 -20 7 -22 -6 -6
-34 10 -19 9 -20 -11 -9 -58 31 -23 -44 65 -140 33 -36 71 -79 85 -95 l25 -29
-35 25 c-19 14 -52 38 -72 53 -21 16 -38 24 -38 18 0 -5 6 -12 13 -15 17 -6
162 -167 150 -167 -4 0 -51 32 -103 71 -122 92 -180 115 -149 57 7 -12 13 -26
12 -29 -1 -3 21 -34 49 -68 27 -34 48 -65 45 -68 -3 -2 -23 7 -44 21 -39 27
-63 33 -63 16 0 -18 92 -123 192 -218 152 -146 162 -170 32 -75 -156 114 -164
119 -164 100 0 -9 16 -36 35 -61 33 -44 34 -46 13 -46 -18 0 -2 -21 82 -105
58 -58 101 -105 96 -105 -9 0 -172 112 -259 178 -31 24 -62 42 -68 40 -6 -2
20 -37 56 -78 70 -79 98 -119 73 -104 -7 4 -67 53 -133 109 -164 139 -324 265
-336 265 -5 0 -9 -3 -9 -7 0 -4 82 -91 183 -192 100 -101 169 -174 153 -163
-30 23 -46 28 -46 14 0 -5 45 -57 100 -116 55 -59 100 -110 100 -112 0 -3 -10
2 -22 10 -50 36 -62 12 -23 -46 34 -51 54 -126 36 -137 -11 -7 -5 -21 24 -65
20 -31 41 -59 46 -62 5 -3 9 -10 9 -16 0 -5 -20 2 -43 16 -33 19 -47 22 -55
14 -14 -14 -15 -43 -3 -67 9 -15 4 -15 -36 5 -80 41 -79 18 6 -79 53 -60 64
-85 34 -72 -10 4 -27 10 -38 13 -18 5 -18 3 4 -24 13 -16 18 -30 12 -32 -17
-6 -13 -31 10 -68 l20 -33 -28 14 c-29 16 -53 19 -53 9 0 -4 17 -29 37 -57 21
-28 37 -57 35 -64 -2 -7 10 -32 26 -56 48 -71 49 -74 19 -54 -15 9 -27 13 -27
7 0 -6 -18 -1 -40 10 -21 11 -42 20 -45 20 -14 0 -1 -25 35 -64 33 -36 38 -45
24 -50 -12 -5 -14 -13 -9 -33 5 -23 4 -25 -10 -13 -27 22 -31 1 -7 -40 12 -21
19 -45 16 -53 -3 -8 4 -34 16 -58 l22 -42 -40 31 c-70 55 -72 34 -5 -52 25
-34 51 -67 57 -75 6 -8 -12 2 -40 22 -56 40 -86 50 -63 20 12 -16 12 -17 -1
-7 -8 6 -40 30 -70 53 -30 22 -58 41 -62 41 -20 0 -1 -26 87 -118 56 -59 90
-102 83 -104 -9 -3 0 -24 27 -64 63 -92 62 -91 31 -71 -52 34 -39 8 44 -88 45
-52 78 -95 73 -95 -4 1 -33 21 -63 45 -30 24 -56 42 -58 40 -3 -2 9 -26 26
-52 17 -26 29 -49 27 -51 -2 -2 -22 10 -46 27 -29 21 -46 28 -53 21 -16 -16
25 -62 57 -66 15 -1 39 -12 53 -23 35 -27 44 -26 44 4 0 49 37 31 178 -83 23
-19 45 -32 48 -29 4 3 -9 25 -28 49 -57 70 -54 73 22 19 40 -28 77 -51 81 -51
5 0 4 11 -1 24 -5 13 -6 28 -2 32 4 5 3 6 -2 2 -9 -7 -35 19 -36 35 0 4 16 7
36 7 26 0 47 -10 79 -37 24 -20 41 -41 38 -47 -3 -6 -3 -8 2 -4 4 4 14 0 22
-10 9 -10 11 -11 7 -2 -5 8 7 2 26 -14 54 -45 48 -12 -10 55 -29 33 -50 62
-47 65 2 3 37 -11 77 -30 117 -57 135 -57 85 2 -25 30 -32 52 -16 52 4 0 29
-19 55 -41 26 -23 49 -40 51 -38 2 3 -17 29 -41 58 -56 67 -80 111 -62 111 7
0 42 -20 77 -45 69 -48 98 -57 86 -27 -4 9 -8 23 -8 30 0 6 -2 10 -5 7 -3 -2
-38 39 -79 93 -41 53 -91 114 -111 135 -45 46 -34 48 27 4 25 -19 52 -37 59
-41 26 -15 10 15 -33 64 -25 28 -45 53 -45 56 0 8 32 -13 85 -55 27 -22 51
-38 54 -36 2 3 -13 28 -33 57 -43 64 -48 92 -12 78 31 -11 39 -3 21 24 -8 11
-15 26 -15 34 0 7 -11 30 -25 50 -14 20 -21 38 -15 40 5 2 -3 25 -18 52 -30
55 -26 70 12 44 39 -25 43 -9 10 34 -46 57 -50 66 -26 53 28 -15 32 -14 25 5
-4 12 0 14 22 8 25 -6 27 -5 20 16 -5 15 -4 20 4 16 6 -4 16 -4 21 -1 12 7 -3
39 -33 73 -18 19 -18 22 -4 22 22 0 22 29 1 59 -13 18 -14 25 -4 31 20 12 2
49 -53 107 -53 56 -54 62 -6 37 17 -8 33 -13 36 -10 3 3 -2 26 -11 52 -18 54
-20 68 -7 60 11 -7 71 25 71 38 0 6 -11 22 -25 36 l-25 26 57 -3 c32 -1 148
-5 258 -7 237 -5 297 -18 356 -77 68 -68 71 -88 79 -579 8 -505 14 -542 96
-639 l26 -31 349 0 349 0 -25 51 c-58 114 -65 171 -65 538 0 381 -10 528 -42
627 -12 38 -22 75 -21 82 0 7 -1 11 -4 8 -3 -3 -20 14 -38 37 -25 32 -30 45
-22 57 9 12 8 13 -2 4 -10 -9 -26 -3 -69 23 -62 37 -127 59 -205 69 l-50 7 54
17 c107 33 200 95 286 191 l50 55 31 -15 c40 -19 51 -8 29 28 -19 33 -23 66
-6 55 6 -3 3 8 -5 25 -18 35 -18 35 18 21 20 -7 26 -6 26 5 0 7 -4 17 -10 20
-10 6 -14 55 -5 55 3 0 28 -16 56 -35 97 -67 111 -41 37 69 l-40 58 58 -41
c116 -83 96 -49 -80 138 -75 79 -136 148 -136 153 0 9 23 -1 83 -39 22 -14 42
-22 45 -18 3 3 -32 44 -79 92 -71 74 -76 80 -29 42 94 -76 98 -75 20 4 -41 42
-70 77 -64 77 6 0 48 -28 93 -62 182 -139 211 -156 211 -124 0 7 -19 35 -42
62 l-43 49 48 -39 c26 -21 50 -36 54 -32 7 6 -1 15 -123 145 -40 42 -83 90
-98 108 -24 28 -24 31 -6 26 40 -11 20 23 -62 101 -88 83 -57 70 37 -16 31
-28 58 -48 61 -45 11 11 -348 327 -371 327 -4 0 10 -19 29 -42 55 -64 43 -65
-31 -3 -157 131 -270 223 -295 240 -50 31 -30 -3 48 -85 69 -72 83 -100 51
-100 -6 0 -49 25 -94 56 -46 30 -88 52 -93 49 -6 -4 -24 5 -42 20 -39 33 -108
69 -108 56 0 -5 27 -36 61 -68 33 -32 76 -77 95 -100 33 -40 28 -37 -77 37
-107 78 -148 98 -167 86 -5 -3 -27 8 -48 25 -52 41 -94 63 -94 48z m189 -633
c40 -21 80 -35 88 -32 19 8 112 -63 113 -86 0 -9 3 -19 8 -22 4 -2 23 -26 42
-52 32 -45 27 -50 -13 -16 -17 15 -17 14 -10 -29 14 -77 8 -229 -11 -294 -14
-46 -29 -71 -65 -105 -74 -72 -186 -99 -409 -100 -94 0 -127 -3 -138 -14 -12
-12 -21 -13 -55 -3 -33 10 -43 19 -54 47 -7 19 -16 43 -20 54 -7 16 -6 17 14
6 13 -6 24 -10 27 -8 4 4 0 9 -136 158 -99 108 -100 112 -13 47 49 -36 73 -41
73 -15 0 6 -19 36 -42 67 -23 31 -35 50 -26 43 9 -7 27 -10 47 -6 l31 7 0 200
0 200 238 -5 237 -5 74 -37z m-1348 -653 c13 -16 12 -17 -3 -4 -10 7 -18 15
-18 17 0 8 8 3 21 -13z m858 -112 c15 -23 15 -24 -4 -13 -11 6 -29 18 -40 27
-20 15 -20 16 4 13 13 -2 31 -14 40 -27z"/>
<path d="M7383 3855 c0 -8 4 -12 9 -9 5 3 6 10 3 15 -9 13 -12 11 -12 -6z"/>
<path d="M6587 3051 c-21 -3 -38 -9 -37 -13 0 -5 0 -174 0 -378 l0 -370 30 0
30 0 0 318 1 317 115 -225 c63 -124 135 -267 161 -317 75 -148 67 -155 255
220 l157 312 0 -312 1 -313 35 0 35 0 0 381 0 380 -36 -3 c-35 -3 -36 -4 -126
-178 -49 -96 -126 -247 -170 -335 l-81 -160 -139 278 c-76 153 -135 283 -132
289 4 6 3 8 -3 5 -10 -6 -60 89 -55 105 1 4 1 7 0 7 -2 -1 -20 -5 -41 -8z"/>
<path d="M3960 2671 l0 -381 30 0 30 0 0 171 0 172 188 -5 c150 -4 194 -8 224
-22 67 -32 72 -44 78 -185 l5 -126 33 -3 32 -3 0 108 c0 134 -12 177 -61 226
l-39 39 23 19 c12 10 25 18 29 19 14 0 58 106 58 139 0 90 -54 166 -137 192
-23 7 -128 14 -265 16 l-228 5 0 -381z m480 297 c63 -27 83 -65 81 -147 -2
-45 -32 -85 -84 -110 -39 -19 -61 -21 -230 -21 l-187 0 0 151 0 152 193 -5
c141 -4 201 -9 227 -20z"/>
<path d="M4670 2670 l0 -380 313 0 313 0 33 75 c22 49 39 75 50 75 12 0 13 2
3 9 -11 6 -10 15 4 44 l18 37 195 0 196 0 54 -120 c54 -118 55 -120 88 -120
18 0 33 2 33 5 0 5 -97 223 -252 565 -81 177 -86 185 -113 185 -27 0 -33 -8
-107 -165 -42 -91 -103 -219 -134 -285 -32 -66 -70 -148 -86 -182 l-28 -63
-260 0 -260 0 0 155 0 155 230 0 230 0 0 25 0 25 -230 0 -230 0 0 140 0 140
255 0 255 0 0 30 0 30 -285 0 -285 0 0 -380z m1019 97 l78 -176 -168 0 -168
-1 87 180 c47 99 87 178 89 176 2 -1 39 -82 82 -179z"/>
<path d="M5990 2671 l0 -381 270 0 270 0 0 30 0 30 -235 0 -235 0 -2 348 -3
347 -32 3 -33 3 0 -380z"/>
<path d="M7848 3044 c-5 -4 -8 -175 -8 -381 l0 -373 35 0 35 0 0 171 0 171
183 -4 c166 -3 186 -6 231 -27 65 -32 76 -61 76 -201 l0 -110 30 0 30 0 0 128
c0 143 -12 181 -68 217 -17 11 -31 22 -31 25 0 3 14 14 31 25 49 31 71 68 76
129 6 77 -4 121 -39 160 -52 60 -95 69 -349 74 -124 2 -228 0 -232 -4z m420
-64 c73 -12 116 -40 132 -83 26 -77 -3 -146 -80 -184 -41 -21 -57 -23 -227
-23 l-183 0 0 150 0 150 148 0 c81 0 176 -5 210 -10z"/>
<path d="M8550 2670 l0 -380 35 0 35 0 0 380 0 380 -35 0 -35 0 0 -380z"/>
<path d="M8650 3038 c0 -6 75 -177 166 -380 161 -354 168 -368 194 -368 23 0
31 7 43 38 8 20 81 186 161 368 80 182 146 336 146 342 0 7 -13 12 -29 12 -28
0 -31 -7 -161 -302 -73 -167 -139 -316 -147 -332 -15 -28 -16 -26 -165 303
-147 322 -152 331 -180 331 -15 0 -28 -5 -28 -12z"/>
<path d="M9647 2978 c-19 -40 -98 -209 -176 -375 -77 -167 -141 -305 -141
-308 0 -3 15 -5 33 -5 33 0 35 2 90 120 l56 120 196 -2 196 -3 53 -115 c50
-109 54 -115 84 -118 18 -2 32 1 32 7 0 6 -54 131 -121 278 -238 526 -210 473
-245 473 -19 0 -29 -13 -57 -72z m143 -203 c39 -88 74 -166 77 -172 4 -10 -32
-13 -162 -13 -92 0 -165 4 -163 9 24 63 165 348 169 343 3 -4 39 -79 79 -167z"/>
<path d="M10100 3045 c0 -3 0 -173 0 -377 l-1 -373 266 -3 265 -2 0 30 0 30
-235 0 -235 0 0 350 0 350 -30 0 c-16 0 -30 -2 -30 -5z"/>
<path d="M10805 3037 c-67 -23 -102 -45 -123 -79 -46 -76 -35 -159 29 -220 44
-42 73 -52 277 -98 149 -34 203 -57 220 -95 17 -38 15 -85 -7 -121 -64 -105
-370 -111 -460 -8 -30 33 -51 88 -51 132 0 18 -6 22 -30 22 -28 0 -30 -3 -30
-36 0 -105 61 -184 173 -223 87 -30 244 -33 322 -6 103 35 155 96 155 182 0
129 -54 167 -325 225 -77 17 -152 36 -167 44 -84 44 -92 155 -14 203 43 27
165 42 248 31 106 -13 164 -58 177 -137 6 -34 9 -38 40 -41 l33 -3 -7 43 c-11
74 -52 129 -120 163 -55 28 -69 30 -180 32 -78 2 -134 -2 -160 -10z"/>
<path d="M5756 2003 c-24 -247 -39 -315 -77 -349 -24 -22 -43 -13 -76 35 -33
48 -46 131 -41 253 4 97 3 108 -13 108 -23 0 -29 -20 -29 -103 1 -168 41 -302
101 -333 17 -8 39 -12 50 -9 25 8 65 62 75 100 l8 30 7 -30 c4 -16 7 -47 8
-67 1 -32 5 -38 22 -38 20 0 21 3 14 43 -4 23 -10 125 -14 226 -4 127 -10 186
-18 188 -7 3 -13 -16 -17 -54z"/>
<path d="M6087 2053 c-4 -3 -7 -107 -7 -230 0 -198 2 -224 16 -221 8 2 15 6
15 11 -1 4 -1 106 -1 227 0 201 -4 233 -23 213z"/>
<path d="M6838 2050 c-1 -5 -2 -109 0 -231 3 -218 3 -220 24 -217 18 2 24 15
35 71 15 73 54 170 80 199 23 26 52 22 63 -8 6 -14 10 -79 10 -145 0 -115 1
-119 21 -119 21 0 22 3 17 128 -6 152 -22 202 -69 202 -38 0 -93 -49 -116
-105 -10 -25 -21 -45 -25 -45 -5 0 -8 63 -8 140 0 114 -3 140 -14 140 -8 0
-16 -4 -18 -10z"/>
<path d="M7610 2048 c0 -21 -63 -208 -70 -208 -3 0 -39 40 -80 90 -56 69 -76
87 -86 79 -10 -8 5 -34 68 -116 l82 -106 -18 -66 c-28 -102 -30 -121 -14 -121
10 0 26 35 47 103 18 56 50 154 70 217 38 116 41 140 15 140 -8 0 -14 -6 -14
-12z"/>
<path d="M8635 2046 c-30 -12 -42 -12 -53 -3 -15 12 -29 -1 -58 -55 -14 -27
-5 -46 16 -33 7 4 10 -57 10 -174 0 -147 3 -181 14 -181 16 0 26 50 26 132 l0
58 53 26 c99 50 157 110 157 163 0 60 -87 95 -165 67z m113 -38 c36 -36 -9
-103 -99 -149 l-59 -29 0 79 0 79 33 16 c38 18 108 21 125 4z"/>
<path d="M5832 1931 c-9 -6 -12 -49 -10 -167 3 -149 4 -159 22 -159 16 0 24
18 47 113 27 112 53 172 77 180 23 7 43 -68 50 -187 6 -93 10 -116 22 -116 12
0 15 18 14 105 -3 161 -28 230 -84 230 -37 0 -68 -37 -90 -106 l-19 -59 0 82
c-1 82 -6 98 -29 84z"/>
<path d="M8947 1926 c-5 -13 39 -315 47 -324 14 -13 36 12 46 50 6 24 21 76
33 117 l22 73 36 -118 c29 -100 38 -120 56 -122 14 -2 23 3 27 15 10 36 39
303 33 309 -3 4 -13 4 -20 1 -11 -4 -18 -40 -28 -126 -7 -66 -14 -119 -16
-118 -1 2 -17 50 -34 108 -17 57 -37 110 -44 117 -21 23 -40 -9 -65 -107 -13
-50 -25 -89 -27 -87 -2 1 -9 48 -17 104 -8 56 -17 106 -21 112 -9 14 -22 13
-28 -4z"/>
<path d="M6204 1918 c-25 -12 -40 -40 -50 -95 -4 -21 -14 -43 -22 -49 -17 -12
-8 -34 12 -34 8 0 19 -20 25 -46 13 -53 50 -94 83 -94 40 0 88 38 109 86 21
47 22 75 2 81 -7 3 -15 -10 -19 -32 -9 -52 -49 -95 -85 -95 -24 0 -32 6 -43
33 -7 17 -16 46 -19 62 -5 28 -2 32 61 66 44 23 68 42 70 55 6 43 -78 85 -124
62z m75 -42 c10 -12 7 -18 -13 -30 -14 -9 -38 -23 -52 -32 l-27 -16 7 32 c3
18 11 39 17 47 15 17 53 17 68 -1z"/>
<path d="M6482 1910 c-64 -39 -116 -216 -83 -279 16 -29 61 -28 91 4 12 13 27
22 31 19 5 -3 7 1 4 8 -3 7 4 27 15 43 l20 30 0 -52 c0 -60 7 -83 25 -83 21 0
23 20 8 95 -7 39 -13 97 -13 131 0 90 -36 121 -98 84z m56 -65 c2 -22 -1 -56
-7 -76 -14 -45 -67 -119 -85 -119 -39 0 -24 118 25 194 37 59 62 59 67 1z"/>
<path d="M6701 1913 c-43 -23 -70 -58 -77 -104 -9 -54 12 -69 97 -69 76 0 85
-9 49 -48 -31 -33 -78 -54 -113 -50 -24 2 -33 -1 -35 -15 -10 -49 101 -23 165
38 72 69 52 120 -43 109 -60 -7 -84 4 -84 40 0 33 44 69 93 75 28 4 42 11 42
21 0 22 -54 24 -94 3z"/>
<path d="M7662 1901 c-58 -58 -80 -197 -41 -259 38 -60 112 -42 155 38 28 52
27 178 -2 217 -31 41 -73 42 -112 4z m87 -39 c20 -51 22 -79 11 -122 -11 -41
-57 -100 -79 -100 -58 0 -54 174 6 235 29 28 47 24 62 -13z"/>
<path d="M7812 1798 c3 -102 8 -141 21 -165 23 -44 56 -43 101 2 l34 34 7 -39
c5 -31 11 -40 27 -40 17 0 19 4 13 23 -4 12 -10 89 -12 170 -4 131 -7 148 -21
145 -14 -3 -18 -21 -22 -105 -5 -104 -18 -139 -63 -167 -33 -21 -42 8 -46 144
-3 122 -4 130 -23 130 -19 0 -20 -5 -16 -132z"/>
<path d="M8032 1768 c3 -140 5 -163 19 -166 13 -2 17 11 21 80 9 133 41 183
126 197 42 7 51 34 13 39 -37 6 -68 -6 -105 -39 l-35 -30 -3 38 c-2 27 -8 39
-21 41 -16 3 -17 -8 -15 -160z"/>
<path d="M8808 1905 c-36 -36 -59 -88 -65 -148 -15 -160 105 -209 173 -71 23
48 26 63 21 121 -6 78 -30 117 -74 121 -21 2 -37 -4 -55 -23z m70 -18 c23 -27
34 -102 22 -147 -11 -41 -57 -100 -79 -100 -62 0 -49 196 17 246 22 17 27 17
40 1z"/>
<path d="M9332 1920 c-26 -11 -52 -65 -52 -110 0 -19 -5 -30 -14 -30 -15 0
-28 -24 -19 -34 4 -3 14 -6 23 -6 12 0 19 -11 24 -39 3 -22 18 -54 33 -71 23
-28 31 -31 61 -26 60 9 118 82 110 138 -5 35 -21 24 -35 -26 -14 -48 -43 -76
-80 -76 -28 0 -49 32 -57 85 l-7 40 56 30 c75 40 90 57 75 85 -6 12 -27 28
-45 36 -39 16 -42 16 -73 4z m72 -43 c17 -13 15 -16 -29 -40 -57 -32 -55 -32
-55 -6 0 52 43 76 84 46z"/>
<path d="M9514 1768 c4 -90 9 -164 11 -167 2 -2 11 -1 20 2 11 5 15 22 15 75
0 119 37 184 114 200 52 10 64 42 16 42 -48 0 -98 -26 -120 -62 l-20 -33 0 53
c0 47 -2 52 -21 52 -22 0 -22 -1 -15 -162z"/>
</g>
</svg>
