<?xml version="1.0" standalone="no"?>
<!DOCTYPE svg PUBLIC "-//W3C//DTD SVG 20010904//EN"
 "http://www.w3.org/TR/2001/REC-SVG-20010904/DTD/svg10.dtd">
<svg version="1.0" xmlns="http://www.w3.org/2000/svg"
 width="800.000000pt" height="850.000000pt" viewBox="0 0 800.000000 850.000000"
 preserveAspectRatio="xMidYMid meet">
<metadata>
Created by potrace 1.16, written by Peter Selinger 2001-2019
</metadata>
<g transform="translate(0.000000,850.000000) scale(0.100000,-0.100000)"
fill="#000000" stroke="none">
<path d="M4720 8494 c-117 -20 -155 -29 -225 -51 -455 -143 -761 -539 -840
-1088 -21 -143 -29 -380 -17 -519 l10 -120 -28 -40 c-85 -125 -169 -361 -199
-564 -23 -149 34 -299 159 -422 145 -143 366 -233 696 -285 l102 -16 37 26
c48 32 124 55 348 106 100 23 213 52 252 66 89 32 269 122 360 180 70 45 255
190 255 200 0 3 -10 -2 -22 -10 -131 -93 -375 -220 -548 -287 -202 -77 -479
-141 -607 -140 l-38 1 45 40 c77 69 260 186 380 243 139 66 264 116 289 116
10 0 36 -12 57 -26 43 -30 96 -54 117 -54 8 0 17 14 21 31 3 17 24 64 46 104
36 65 48 77 108 113 102 61 199 147 243 214 21 34 39 68 39 75 0 8 -28 -11
-62 -42 -141 -128 -329 -229 -699 -378 -397 -160 -566 -253 -717 -392 l-72
-67 -83 12 c-343 49 -545 192 -628 443 -21 63 -21 75 -11 144 23 146 102 344
215 536 l55 93 -9 152 c-31 490 88 909 332 1177 314 343 861 419 1356 189 285
-132 550 -387 662 -638 91 -201 117 -346 166 -916 39 -454 109 -692 266 -908
l48 -66 -101 -95 c-173 -164 -292 -336 -381 -556 -124 -303 -168 -587 -172
-1116 l-2 -326 -53 -79 c-184 -274 -362 -453 -588 -593 -98 -61 -289 -159
-536 -275 l-180 -84 -45 31 c-26 18 -103 88 -172 157 -280 276 -409 575 -409
945 0 219 44 407 140 604 79 161 159 271 305 417 172 173 351 292 576 384 l55
22 45 -22 c207 -105 366 -314 436 -575 24 -90 27 -118 27 -275 1 -133 -3 -195
-17 -260 -42 -196 -133 -401 -254 -571 -127 -180 -408 -435 -597 -544 l-49
-29 7 53 c16 120 70 185 246 294 158 98 260 200 322 322 52 103 84 183 75 191
-3 3 -15 -12 -26 -35 -44 -85 -111 -141 -169 -141 -54 0 -58 22 -18 88 48 79
99 185 122 252 14 41 19 84 19 170 0 105 -3 120 -28 174 -31 68 -137 177 -207
215 l-45 24 48 -49 c97 -98 148 -256 127 -389 -22 -140 -77 -237 -155 -275
-85 -41 -183 -23 -246 47 -55 61 -55 55 11 130 67 74 115 164 125 232 4 23 4
73 0 110 -7 57 -9 63 -17 41 -42 -109 -74 -145 -120 -138 -29 4 -38 42 -41
168 -3 147 26 183 231 283 68 34 120 63 115 64 -5 2 -67 -13 -138 -32 -295
-80 -446 -200 -470 -371 l-7 -52 39 -7 c22 -3 52 -16 68 -29 49 -39 40 -87
-48 -273 -85 -177 -126 -306 -128 -397 -1 -61 -2 -61 -9 -16 -7 46 -2 107 24
297 22 154 8 223 -56 283 -33 30 -36 25 -21 -32 27 -102 5 -187 -96 -362 -85
-148 -105 -210 -98 -307 9 -133 86 -259 261 -426 97 -93 256 -223 273 -223 18
0 187 110 298 195 414 313 686 723 760 1146 22 124 23 337 1 450 -62 330 -251
581 -523 697 -28 12 -56 22 -62 22 -5 0 -38 -20 -73 -43 -35 -24 -135 -86
-223 -137 -290 -169 -385 -241 -513 -396 -195 -232 -322 -473 -389 -734 -25
-97 -27 -120 -28 -310 0 -164 4 -222 19 -290 63 -289 207 -581 411 -835 69
-85 311 -335 324 -335 3 0 22 24 41 52 183 270 439 499 668 598 90 39 228 84
294 95 35 7 37 9 62 88 48 154 173 378 292 521 l57 70 2 365 c1 373 7 447 49
646 78 367 240 661 530 960 64 66 116 121 116 122 0 1 -20 30 -44 65 -163 234
-235 508 -276 1053 -34 444 -84 674 -192 889 -149 298 -444 554 -786 682 -170
64 -284 85 -477 89 -93 2 -181 2 -195 -1z"/>
<path d="M5124 7536 c-127 -59 -189 -187 -201 -409 -6 -108 7 -264 32 -385 8
-35 15 -65 17 -67 7 -6 229 25 247 35 12 6 21 12 21 13 0 1 -50 1 -111 -1 -62
-2 -115 0 -120 5 -18 18 -43 223 -43 353 1 109 5 147 21 197 24 71 68 145 113
188 l30 29 -6 -32 c-8 -38 1 -41 28 -7 40 51 135 21 227 -73 88 -90 131 -195
131 -317 0 -60 -5 -82 -28 -126 -23 -45 -37 -58 -82 -81 -30 -15 -76 -30 -103
-34 -45 -6 -49 -5 -82 30 -70 75 -135 244 -135 356 -1 45 -3 52 -12 36 -16
-28 -3 -178 22 -261 29 -91 53 -137 97 -186 35 -38 37 -39 87 -33 74 8 144 32
201 69 59 37 145 130 145 155 0 35 -32 155 -61 231 -35 90 -109 202 -187 282
l-56 57 -71 0 c-52 0 -83 -6 -121 -24z"/>
<path d="M5142 7343 c-4 -10 -7 -65 -6 -123 0 -84 5 -116 23 -162 32 -83 80
-149 124 -171 82 -42 164 20 174 130 9 94 -39 243 -102 318 l-25 30 25 -55
c50 -111 68 -261 35 -294 -8 -8 -10 -7 -5 6 7 17 -21 78 -55 118 l-22 25 7
-53 c3 -29 8 -58 10 -65 3 -6 0 -19 -5 -27 -9 -13 -12 -12 -25 4 -11 14 -15
49 -16 125 -1 109 -2 108 -28 -17 -15 -73 -14 -103 5 -132 12 -19 9 -17 -14 6
-53 57 -101 231 -87 316 7 39 0 51 -13 21z"/>
<path d="M207 6050 c-12 -45 -7 -181 8 -242 35 -133 89 -225 291 -495 273
-364 333 -494 321 -698 -6 -114 -35 -195 -110 -307 -69 -104 -126 -158 -166
-158 -36 0 -51 36 -51 122 0 33 -4 57 -8 54 -5 -3 -28 -56 -52 -118 -24 -62
-55 -124 -68 -137 l-25 -25 23 -18 c12 -10 35 -18 51 -18 16 0 29 -4 29 -8 0
-22 -67 -106 -105 -132 -51 -35 -61 -37 -75 -11 -12 24 -39 51 -49 51 -5 0 -2
-19 7 -43 29 -80 15 -107 -114 -234 -63 -62 -114 -117 -114 -122 0 -5 6 -14
14 -21 18 -14 49 -108 71 -210 26 -121 62 -205 102 -240 45 -40 72 -50 136
-50 81 0 86 11 22 53 -114 76 -160 178 -153 335 4 79 11 112 38 181 46 117
148 265 285 411 64 69 138 153 164 187 233 314 271 595 119 898 -48 95 -111
185 -253 359 -109 133 -148 191 -159 239 -10 45 1 47 42 8 21 -20 67 -54 102
-75 158 -95 318 -207 352 -244 20 -22 53 -75 72 -117 56 -122 116 -195 356
-440 191 -195 231 -241 265 -305 37 -70 39 -81 40 -160 0 -72 -4 -93 -26 -137
-14 -29 -23 -53 -19 -53 3 0 46 13 94 30 74 25 88 27 93 14 3 -8 3 -99 0 -202
-4 -147 -10 -205 -27 -272 -67 -261 -214 -410 -530 -537 -58 -24 -108 -43
-112 -43 -15 0 -8 89 13 156 26 83 69 172 116 238 l35 48 -64 -4 c-125 -9
-267 -90 -429 -246 -89 -85 -209 -227 -209 -246 0 -4 35 25 78 65 109 102 226
199 306 253 70 48 166 101 166 91 0 -2 -18 -28 -40 -57 -60 -80 -126 -216
-145 -301 -9 -42 -14 -81 -10 -87 9 -15 150 -12 225 5 184 43 348 135 496 277
96 92 155 170 204 268 35 69 70 179 70 218 0 13 -18 78 -40 143 -25 73 -40
138 -40 167 0 61 23 164 49 226 12 27 20 51 17 53 -9 10 -93 -42 -141 -88
l-51 -48 34 68 c58 116 42 234 -40 294 -18 13 -78 49 -133 80 -55 30 -125 77
-156 104 -141 122 -254 319 -324 568 -16 57 -27 79 -36 75 -41 -15 -128 -3
-189 27 -188 89 -512 393 -626 589 -10 17 -11 16 -17 -6z"/>
<path d="M4068 5903 c-23 -6 -22 -29 2 -73 l19 -35 1 43 c0 35 4 45 20 49 11
3 17 9 14 14 -5 9 -26 10 -56 2z"/>
<path d="M6650 5364 c137 -200 284 -374 520 -614 221 -223 274 -286 313 -368
26 -56 29 -71 26 -140 -3 -66 -10 -90 -42 -155 -21 -42 -43 -77 -49 -77 -6 0
-63 21 -127 46 -359 144 -834 432 -1072 651 -73 67 -71 59 12 -88 87 -152 206
-307 332 -434 l110 -110 1 -230 c0 -181 -4 -246 -17 -304 -24 -102 -55 -162
-97 -184 -60 -31 -121 -9 -227 81 -29 24 -53 40 -53 34 0 -6 9 -49 19 -94 146
-635 183 -1091 115 -1428 -73 -364 -290 -655 -632 -847 -35 -19 -61 -37 -58
-40 7 -7 110 23 186 54 120 49 200 104 311 213 181 177 287 367 363 652 103
381 56 849 -115 1168 -22 41 -25 50 -10 35 11 -11 33 -44 50 -74 l29 -54 35
69 c71 141 136 371 171 604 18 126 36 306 36 371 0 47 -1 49 -52 82 -112 71
-231 177 -341 302 -58 65 -59 68 -17 32 224 -188 323 -256 490 -336 91 -44 94
-47 78 -63 -31 -31 -18 -159 24 -244 12 -26 19 -29 53 -27 72 5 131 31 174 78
23 25 41 50 41 56 0 6 31 -18 69 -54 38 -36 96 -83 128 -105 53 -36 155 -92
168 -92 12 0 4 238 -10 290 -8 30 -15 57 -15 59 0 2 22 -17 49 -42 26 -25 67
-55 89 -66 82 -42 222 -66 222 -38 0 12 -42 92 -92 177 l-27 45 55 29 c48 26
142 121 130 133 -2 2 -33 11 -67 19 -94 22 -144 40 -244 89 -250 122 -456 304
-841 742 -113 128 -209 235 -216 239 -6 4 4 -15 22 -42z"/>
<path d="M4580 5238 c-36 -33 -171 -149 -300 -256 -331 -276 -444 -377 -613
-551 -127 -132 -146 -155 -141 -177 5 -21 3 -24 -19 -24 -14 0 -72 16 -128 35
-57 19 -104 35 -105 35 -1 0 5 -18 13 -39 21 -55 11 -91 -25 -91 -37 0 -74 39
-105 110 l-25 55 -7 -45 c-9 -59 -12 -237 -4 -244 8 -8 139 20 186 39 56 24
73 43 73 85 l0 38 58 -24 c63 -26 149 -32 174 -11 8 6 43 53 77 104 123 185
293 369 566 613 196 174 329 305 367 358 16 24 28 45 26 47 -1 1 -32 -24 -68
-57z"/>
<path d="M4410 4969 c-463 -316 -763 -761 -876 -1304 -25 -119 -28 -149 -28
-360 0 -241 8 -314 55 -480 101 -354 301 -638 581 -826 161 -107 298 -166 488
-212 141 -34 180 -39 184 -24 2 7 13 62 25 122 11 61 32 146 46 190 33 102
120 283 173 359 91 133 227 258 357 332 59 33 58 31 -20 -31 -164 -130 -318
-330 -379 -494 -56 -149 -61 -177 -61 -351 0 -176 7 -215 62 -350 50 -123 104
-201 213 -310 73 -73 130 -119 186 -152 45 -27 84 -48 86 -48 3 0 -41 47 -98
105 -264 268 -394 594 -355 890 30 232 131 427 309 597 88 84 140 122 261 190
100 56 95 63 -39 63 -93 -1 -155 -21 -268 -86 -84 -50 -266 -236 -341 -349
-77 -116 -168 -302 -212 -430 -18 -52 -36 -99 -41 -105 -11 -12 -109 8 -223
47 -543 184 -845 649 -845 1300 0 591 254 1221 646 1599 44 42 108 97 143 122
85 63 65 60 -29 -4z"/>
<path d="M3239 4974 c-33 -35 -38 -116 -10 -179 12 -26 19 -50 16 -53 -3 -3
-14 16 -25 42 -23 50 -21 50 -110 24 -43 -13 -160 -66 -178 -80 -10 -9 -7 -17
15 -41 38 -39 106 -86 148 -100 l36 -13 -60 -27 c-55 -25 -171 -118 -171 -137
0 -8 157 -50 189 -50 17 0 20 5 15 30 -11 52 3 78 61 116 30 20 55 39 55 41 0
2 -13 16 -30 29 -32 27 -75 83 -69 89 3 2 31 -3 64 -11 55 -13 295 -20 295 -9
0 3 -25 37 -55 76 -30 39 -55 75 -55 79 0 13 31 21 102 27 76 7 137 -6 216
-45 53 -26 54 -27 49 -64 -9 -67 -101 -177 -215 -257 -47 -33 -33 -37 25 -7
73 37 155 108 219 189 51 65 114 173 114 195 0 5 -57 12 -127 14 -143 6 -245
33 -407 108 l-84 38 -23 -24z"/>
<path d="M1046 4719 c19 -229 -64 -423 -315 -733 -233 -288 -276 -353 -313
-469 -26 -81 -20 -164 16 -243 26 -56 85 -143 97 -144 3 0 14 19 24 43 28 62
99 171 146 222 23 25 38 45 34 45 -17 0 -118 -95 -158 -148 l-41 -55 -13 29
c-27 66 -37 161 -23 236 24 136 94 243 310 473 62 66 140 153 172 193 72 91
143 235 159 324 l12 67 29 -57 c46 -91 114 -268 147 -382 45 -156 63 -279 64
-420 0 -140 -11 -213 -47 -300 -13 -33 -20 -60 -16 -60 15 0 92 94 115 140 59
117 74 291 40 461 -56 274 -222 603 -414 819 l-32 35 7 -76z"/>
<path d="M3454 3848 c-176 -181 -291 -346 -400 -572 -165 -346 -213 -690 -133
-953 23 -76 85 -205 130 -269 147 -214 387 -337 595 -304 99 16 219 77 297
150 l62 60 -78 -39 c-111 -56 -200 -76 -332 -76 -121 0 -180 15 -272 66 -114
65 -215 214 -248 369 -9 41 -26 98 -37 125 -64 160 -64 303 1 557 75 292 325
766 504 955 17 18 28 35 25 38 -2 3 -54 -46 -114 -107z"/>
<path d="M901 3314 c-356 -374 -540 -1112 -422 -1691 82 -400 274 -670 601
-846 631 -338 1563 -433 2387 -243 445 103 889 303 1218 550 130 97 243 195
265 230 70 113 -43 263 -290 386 -98 50 -197 85 -293 105 -75 16 -213 20 -221
6 -3 -5 16 -16 42 -26 26 -10 92 -40 146 -68 175 -89 270 -208 252 -319 -46
-286 -659 -586 -1456 -712 -255 -40 -614 -52 -875 -27 -169 15 -409 55 -560
93 -361 90 -597 209 -786 397 -120 121 -162 197 -167 308 -5 89 19 146 84 200
l43 37 -32 35 c-167 185 -251 536 -203 846 50 320 138 529 335 796 28 39 1 16
-68 -57z"/>
<path d="M826 2922 c-2 -4 -16 -63 -31 -132 -33 -152 -44 -382 -25 -511 32
-224 129 -417 294 -588 148 -153 383 -308 622 -410 l51 -22 29 26 c59 55 163
97 465 190 278 86 470 166 235 99 -263 -76 -557 -120 -738 -112 -168 8 -236
38 -378 165 -244 217 -419 518 -492 844 -19 87 -23 134 -23 281 0 98 -1 178
-2 178 -1 0 -4 -3 -7 -8z"/>
<path d="M3010 1794 c-68 -36 -151 -84 -185 -107 -91 -62 -229 -206 -213 -222
3 -3 49 8 103 25 53 16 108 30 121 30 12 0 26 5 29 10 3 6 -2 10 -12 10 -10 0
-36 5 -58 11 l-40 11 50 45 c71 63 181 135 257 167 l65 28 54 -28 c67 -34 161
-61 236 -68 l58 -5 -50 15 c-113 34 -186 67 -228 105 -25 21 -49 39 -54 39 -4
0 -64 -30 -133 -66z"/>
<path d="M3742 1674 c-65 -28 -180 -45 -372 -54 -273 -12 -343 -34 -453 -139
-69 -66 -102 -117 -117 -186 -15 -64 -15 -251 -1 -289 l11 -28 23 33 c13 19
63 63 113 99 85 61 183 140 173 140 -2 0 -26 -8 -54 -19 -27 -10 -72 -22 -99
-26 l-49 -7 6 59 c10 91 25 130 70 185 49 60 67 70 67 35 0 -13 10 -39 23 -58
21 -32 56 -57 263 -189 100 -63 178 -137 231 -215 19 -30 37 -55 39 -55 12 0
29 60 48 175 l22 133 -51 -29 c-91 -51 -169 -35 -231 47 -26 33 -29 46 -29
110 0 63 3 76 25 99 33 35 77 57 181 91 88 28 193 76 204 94 8 13 -3 12 -43
-6z"/>
<path d="M5197 1132 c-3 -27 -37 -127 -76 -223 -85 -209 -111 -306 -114 -419
-2 -94 8 -187 24 -210 9 -13 11 -13 16 0 3 8 61 69 129 135 68 66 124 123 124
126 0 3 -24 0 -52 -8 -69 -18 -124 -8 -160 27 -35 36 -36 68 -1 132 68 125
214 185 498 203 297 19 450 74 594 213 42 40 61 64 43 52 -151 -100 -578 -220
-784 -220 -137 0 -198 27 -198 88 0 18 3 17 52 -7 40 -20 71 -26 128 -28 l75
-3 -42 14 c-65 21 -123 59 -183 120 -30 31 -57 56 -61 56 -3 0 -9 -22 -12 -48z"/>
<path d="M6267 1100 c5 -25 8 -80 8 -123 0 -71 -2 -81 -24 -98 -31 -25 -100
-25 -181 0 -34 11 -68 17 -75 15 -19 -8 -61 -91 -84 -169 -12 -38 -37 -155
-56 -259 -20 -104 -43 -205 -51 -225 l-15 -36 -36 90 c-51 127 -51 185 -1 256
20 29 35 55 33 57 -7 7 -61 -28 -91 -60 -38 -40 -60 -81 -69 -129 -6 -31 0
-48 43 -123 28 -48 69 -135 93 -193 41 -102 43 -105 56 -80 44 86 102 314 138
547 21 140 45 242 60 258 9 11 21 11 61 1 186 -46 360 -209 324 -304 -17 -46
-104 -58 -210 -31 -30 8 -56 13 -58 11 -12 -11 45 -66 136 -132 57 -42 117
-94 133 -115 l28 -39 6 33 c3 18 9 90 14 160 18 240 -12 396 -115 598 -70 138
-76 146 -67 90z"/>
</g>
</svg>
