<?xml version="1.0" standalone="no"?>
<!DOCTYPE svg PUBLIC "-//W3C//DTD SVG 20010904//EN"
 "http://www.w3.org/TR/2001/REC-SVG-20010904/DTD/svg10.dtd">
<svg version="1.0" xmlns="http://www.w3.org/2000/svg"
 width="944.000000pt" height="421.000000pt" viewBox="0 0 944.000000 421.000000"
 preserveAspectRatio="xMidYMid meet">

<g transform="translate(0.000000,421.000000) scale(0.100000,-0.100000)"
fill="#000000" stroke="none">
<path d="M0 2105 l0 -2105 4720 0 4720 0 0 2105 0 2105 -4720 0 -4720 0 0
-2105z m4840 843 c17 -12 38 -22 49 -23 10 -1 36 -15 57 -32 65 -50 71 -48 19
6 -27 28 -46 51 -42 51 8 0 108 -53 143 -77 40 -26 39 -7 -2 44 -45 55 -33 48
92 -56 48 -40 72 -56 64 -41 l-12 23 31 -22 c63 -45 137 -120 138 -140 1 -14
-2 -19 -10 -14 -18 10 10 -25 65 -83 34 -35 47 -56 42 -67 -8 -22 -16 -21 -45
1 -13 10 -42 32 -63 48 l-40 29 19 -30 19 -30 -24 20 c-14 11 -5 -3 20 -29
l45 -49 -39 23 c-34 21 -37 21 -28 4 6 -10 40 -48 76 -84 36 -35 66 -69 66
-74 0 -5 -8 -2 -17 6 -39 33 -46 31 -24 -6 13 -20 21 -40 18 -43 -3 -3 -23 5
-43 18 l-37 23 7 -28 c5 -20 4 -26 -5 -20 -9 5 -11 -3 -6 -30 5 -32 3 -37 -12
-34 -11 2 -30 -11 -46 -30 -31 -37 -119 -91 -150 -93 -11 0 10 -10 47 -23 37
-12 77 -31 89 -42 61 -55 78 -148 79 -420 0 -171 5 -216 35 -286 7 -17 -5 -18
-167 -18 -170 0 -175 1 -196 23 -38 40 -45 84 -51 332 -5 174 -11 248 -21 268
-25 50 -60 61 -222 67 -141 5 -146 4 -130 -13 14 -16 14 -19 2 -27 -8 -6 -19
-10 -24 -10 -4 0 -5 -12 -2 -26 6 -21 4 -25 -8 -21 -22 9 -20 -3 6 -30 13 -14
22 -37 23 -60 1 -21 6 -47 12 -58 8 -15 8 -23 -2 -32 -7 -6 -16 -9 -19 -6 -3
4 -6 1 -6 -6 0 -7 -5 -9 -11 -5 -6 3 -3 -6 7 -22 18 -26 18 -28 1 -21 -20 7
-23 -13 -5 -31 7 -7 9 -12 5 -12 -4 0 2 -17 13 -37 24 -45 25 -54 5 -47 -19 8
-19 -6 1 -34 17 -24 4 -31 -16 -7 -7 8 -17 15 -23 15 -6 0 -1 -10 11 -23 32
-34 27 -42 -10 -15 l-33 23 20 -26 c11 -15 40 -52 64 -83 24 -31 42 -59 39
-61 -2 -2 -21 7 -42 21 -40 28 -59 26 -34 -3 8 -10 19 -25 23 -33 6 -12 5 -13
-6 -2 -20 19 -31 14 -19 -8 14 -26 1 -26 -50 0 -22 11 -40 18 -40 16 0 -3 14
-21 31 -41 40 -45 29 -45 -24 0 -22 19 -49 35 -59 35 -21 0 -23 -11 -6 -28 24
-24 1 -21 -37 5 l-39 26 23 -31 c29 -41 23 -40 -29 3 -42 35 -70 45 -70 24 0
-18 -23 -4 -26 15 -1 10 -7 23 -13 29 -22 22 -10 30 12 9 39 -37 41 -24 2 20
-20 24 -31 44 -25 46 6 2 2 16 -10 32 -11 16 -19 33 -18 38 2 5 -18 30 -45 57
-51 52 -55 67 -11 39 15 -10 34 -19 42 -20 8 -2 26 -13 40 -26 15 -13 11 -5
-11 21 -40 48 -50 76 -17 46 20 -18 20 -18 14 16 -4 19 -11 38 -15 44 -12 12
-12 28 0 21 18 -12 18 33 0 50 -25 22 -24 38 0 24 44 -23 51 -12 24 38 -14 26
-30 53 -36 61 -10 12 -8 13 10 9 20 -5 21 -4 12 14 -6 11 -8 22 -5 25 3 4 0
13 -7 21 -10 13 -8 14 12 7 24 -7 23 -6 -7 31 -36 44 -41 59 -13 44 25 -13 34
-13 26 0 -4 6 -4 18 -1 26 5 13 9 12 32 -3 27 -17 27 -17 15 4 -6 12 -16 25
-21 28 -6 3 -10 21 -10 38 -1 18 -7 43 -15 57 -19 33 -19 43 1 36 9 -3 -7 19
-35 50 -28 31 -49 59 -47 63 3 4 -27 39 -65 77 -39 38 -75 78 -81 89 -14 24
-20 29 130 -93 61 -51 112 -89 112 -84 0 5 -12 19 -26 33 -55 51 -44 60 17 15
96 -69 109 -74 54 -17 -27 28 -43 51 -36 51 8 0 5 9 -8 26 -32 40 -25 49 14
20 104 -77 106 -76 21 14 -51 53 -84 96 -77 98 7 2 18 -1 24 -7 27 -27 24 -7
-5 34 -17 25 -28 48 -24 52 7 8 10 6 83 -47 l48 -34 -32 37 c-37 42 -44 60
-13 32 37 -34 20 -2 -25 46 -44 47 -55 69 -34 69 5 0 7 5 4 10 -6 9 8 14 28
11 5 -1 5 4 1 11 -10 16 -14 31 -21 90 l-5 47 233 3 c234 3 234 3 269 -21 35
-25 35 -25 15 -2 l-20 23 33 -7 c36 -7 40 0 15 27 -23 25 -8 35 19 12 13 -10
17 -12 11 -4 -13 14 -17 30 -8 30 3 0 19 -10 35 -22z m-580 -1603 c10 -12 9
-15 -8 -15 -11 0 -22 7 -26 15 -3 9 0 15 8 15 7 0 19 -7 26 -15z"/>
<path d="M5290 2757 c0 -3 19 -20 43 -38 23 -19 36 -26 28 -16 -16 20 -71 61
-71 54z"/>
<path d="M4608 2558 c-3 -91 -5 -103 -20 -102 -16 2 -16 -1 3 -28 29 -40 17
-46 -28 -13 l-38 28 25 -29 c13 -16 43 -48 65 -72 24 -26 32 -40 21 -36 -16 6
-17 4 -8 -13 7 -13 8 -23 1 -30 -6 -6 -5 -14 6 -23 13 -11 15 -10 10 1 -4 11
14 15 92 17 54 1 123 8 153 14 98 19 139 85 128 213 -2 34 0 44 10 40 7 -2 -1
15 -17 39 -27 39 -43 52 -69 57 -4 1 -24 10 -44 20 -31 16 -59 19 -162 19
l-125 0 -3 -102z"/>
<path d="M5440 2546 c0 -2 8 -10 18 -17 15 -13 16 -12 3 4 -13 16 -21 21 -21
13z"/>
</g>
</svg>
