<svg version="1.1" id="Layer_1" xmlns="http://www.w3.org/2000/svg" xmlns:xlink="http://www.w3.org/1999/xlink" x="0px" y="0px"
	 width="100%" viewBox="0 0 181 198" enable-background="new 0 0 181 198" xml:space="preserve">
<path fill="#282F37" opacity="1.000000" stroke="none" 
	d="
M106.000000,199.000000 
	C70.666672,199.000000 35.833336,199.000000 1.000005,199.000000 
	C1.000003,133.000000 1.000003,67.000015 1.000002,1.000014 
	C61.333324,1.000009 121.666649,1.000009 181.999969,1.000005 
	C181.999985,66.999985 181.999985,132.999969 182.000000,198.999969 
	C156.833328,199.000000 131.666672,199.000000 106.000000,199.000000 
M17.757898,70.407280 
	C17.598440,70.327492 17.438982,70.247711 17.011482,69.611794 
	C14.686181,67.746552 12.360879,65.881317 9.448249,63.675587 
	C7.871405,62.328239 6.294562,60.980892 4.717719,59.633545 
	C4.318649,60.088680 3.919580,60.543816 3.520510,60.998951 
	C5.676926,63.000271 7.833341,65.001587 10.594995,67.278908 
	C12.592994,69.077988 14.590992,70.877060 16.951582,73.148720 
	C17.983852,74.092186 19.016123,75.035645 20.182175,76.687553 
	C20.488741,78.043289 20.795309,79.399017 20.930861,81.419724 
	C20.509205,82.388741 20.087551,83.357758 19.402809,84.931381 
	C21.698881,84.931381 23.438038,84.931381 25.640291,85.021210 
	C25.952015,85.191048 26.097488,85.453156 26.034033,86.462006 
	C26.265518,87.275543 26.497004,88.089073 26.659042,89.695038 
	C27.637041,92.405228 28.615042,95.115425 28.919643,98.314896 
	C28.594772,100.503471 28.269901,102.692047 27.958933,104.952637 
	C27.958933,104.952637 27.885687,104.948891 27.225718,105.080009 
	C25.941263,105.730156 24.613138,106.314804 23.423906,107.107765 
	C23.263098,107.214989 23.799746,108.368210 24.646175,109.476128 
	C25.739517,110.877510 26.832859,112.278893 27.173187,113.847786 
	C25.224085,114.506714 23.274981,115.165642 21.325878,115.824577 
	C20.687931,114.871140 20.470472,114.959450 20.456802,115.072418 
	C20.054386,118.397781 18.930363,121.848145 19.455168,125.025223 
	C20.310974,130.206146 25.860384,126.767242 29.035070,129.616455 
	C29.366337,130.303009 29.697601,130.989563 29.230814,132.055511 
	C28.793798,132.445801 28.356783,132.836105 27.230854,133.179535 
	C26.821999,132.972717 26.413145,132.765900 25.863506,132.100189 
	C25.489222,131.915359 25.114937,131.730515 24.740652,131.545685 
	C24.861063,132.044861 24.981472,132.544022 25.498144,133.617050 
	C26.087530,135.384705 26.676918,137.152359 26.693632,138.962448 
	C26.555511,139.996216 26.417389,141.029984 26.831442,142.654251 
	C27.098509,143.396027 27.365576,144.137802 26.917700,145.094589 
	C25.543049,146.064285 22.812050,146.428589 25.204670,149.539474 
	C25.427486,149.776855 25.667288,149.995605 25.377396,150.593735 
	C24.257013,150.726608 23.136631,150.859497 21.544579,150.776627 
	C21.381876,150.718124 21.219175,150.659637 20.922817,149.976334 
	C19.966175,149.314850 19.009535,148.653351 18.052895,147.991852 
	C17.794737,148.317566 17.536577,148.643280 17.278418,148.968994 
	C17.855930,149.650665 18.433441,150.332352 18.948027,151.503784 
	C18.948027,151.503784 19.023657,151.991730 18.623737,152.438034 
	C19.712755,153.294159 20.801773,154.150284 22.266628,155.544128 
	C23.535957,156.288269 24.805286,157.032410 26.370712,158.220261 
	C26.628456,158.464859 26.886200,158.709457 26.989910,159.503738 
	C27.050293,160.015503 27.110674,160.527267 27.321133,161.715317 
	C27.606976,162.339447 27.892818,162.963593 27.892292,164.228577 
	C28.471857,165.802292 29.051420,167.376022 30.241745,169.372192 
	C30.471857,169.800766 30.701969,170.229340 30.297312,170.963699 
	C28.925529,172.572220 27.553745,174.180740 26.181955,175.789261 
	C28.070585,177.262970 29.769791,179.355438 31.909084,180.010315 
	C33.556404,180.514618 35.756950,179.211700 38.354122,178.751648 
	C41.734859,180.301025 45.115597,181.850403 48.967865,183.615891 
	C48.967865,181.406128 48.967865,180.204865 48.967865,178.669128 
	C54.415047,179.492371 59.568195,180.271164 64.864388,181.071579 
	C64.626503,180.462341 64.259293,179.521835 63.773308,178.277130 
	C65.279907,177.843765 66.636650,177.453506 68.214684,177.713104 
	C69.949608,177.534027 72.435814,178.132690 70.942093,174.374664 
	C70.718391,173.899078 70.494690,173.423508 70.563286,172.199020 
	C70.443932,171.457397 70.324577,170.715775 70.205231,169.974167 
	C69.686966,170.243805 69.168709,170.513443 68.187126,170.540634 
	C68.056160,170.223984 67.925194,169.907349 67.791695,168.854187 
	C67.133110,168.260803 66.474525,167.667404 65.266045,166.797302 
	C64.925781,166.294510 64.585518,165.791718 65.034958,165.108368 
	C72.100334,160.885345 72.797523,157.797516 67.244057,153.210175 
	C67.198830,152.719788 67.153595,152.229416 68.081657,151.861099 
	C72.855576,150.855103 77.825493,150.383041 82.357910,148.719162 
	C89.321289,146.162903 95.459091,148.504608 97.012939,155.591354 
	C98.052048,160.330460 100.323135,161.662750 104.966553,160.853485 
	C106.006012,165.498337 107.045471,170.143173 108.033234,175.537628 
	C108.244820,177.295685 107.728645,179.931595 111.934296,178.105209 
	C123.348488,178.234360 134.762680,178.363510 146.560638,178.700317 
	C146.905106,178.517532 147.249573,178.334747 147.594055,178.151978 
	C147.241470,177.760147 146.888870,177.368317 146.038376,176.379242 
	C144.721863,170.289810 142.638916,164.247711 142.259338,158.100418 
	C141.606918,147.534454 142.128204,136.900940 141.942352,126.299545 
	C141.814758,119.021515 140.086945,112.186127 135.032944,105.839478 
	C134.124283,101.233849 132.975082,100.627411 129.341858,103.154778 
	C127.569321,102.613739 125.796791,102.072701 124.037483,100.916222 
	C124.026352,100.300758 124.015221,99.685295 124.514267,98.657661 
	C125.693428,98.146538 126.872581,97.635414 128.827866,97.415619 
	C129.487686,96.761398 130.147507,96.107178 131.188889,94.947227 
	C133.413422,92.946129 135.637955,90.945030 138.548035,88.963898 
	C139.364792,88.644623 140.181549,88.325340 141.405273,87.871056 
	C141.780243,87.502930 142.155212,87.134804 142.938919,86.030052 
	C144.379730,83.984291 145.820541,81.938538 148.062607,80.004234 
	C148.717377,79.776154 149.372147,79.548065 150.026917,79.319977 
	C147.866318,75.250458 148.765915,69.882675 144.215347,66.736633 
	C141.977997,65.189827 140.385468,62.710327 138.501144,60.652905 
	C138.948593,60.542362 139.396027,60.431820 139.843475,60.321278 
	C139.843475,58.326202 139.843475,56.331127 139.843475,53.837818 
	C143.075211,55.883774 145.822144,57.622807 148.900375,59.940155 
	C149.571945,60.324928 150.243515,60.709698 150.915085,61.094467 
	C151.349625,60.800533 151.784180,60.506596 152.218719,60.212662 
	C150.771149,57.734417 149.323563,55.256176 147.489700,52.168930 
	C145.584702,50.137562 143.679718,48.106194 141.763550,45.248680 
	C142.699463,39.130383 137.626404,36.965145 133.844040,33.154385 
	C126.819771,28.656826 119.795494,24.159267 112.771217,19.661709 
	C112.641548,19.903942 112.511871,20.146175 112.382202,20.388411 
	C113.270782,21.579933 114.159355,22.771458 115.047935,23.962982 
	C114.757523,24.336229 114.467110,24.709476 114.176697,25.082724 
	C112.710541,24.280165 111.314903,23.286566 109.763832,22.714045 
	C106.330070,21.446594 102.824303,20.371672 99.335648,19.256561 
	C97.574783,18.693720 95.787216,18.214380 93.813103,17.156210 
	C93.158379,17.381327 92.503654,17.606445 91.093399,17.876871 
	C90.065773,17.161692 89.038139,16.446512 87.857811,15.061601 
	C86.217888,14.673194 84.252121,13.560317 83.033409,14.108441 
	C81.906532,14.615265 81.579803,16.901163 80.690773,18.867937 
	C79.759537,18.968830 77.977280,19.161922 75.440620,19.313929 
	C60.122402,19.313929 44.804188,19.313929 28.659660,19.313929 
	C29.175953,23.956898 29.567450,27.477571 29.273869,31.118713 
	C27.433243,33.048344 24.028797,34.359627 26.961248,38.347530 
	C26.993414,38.521851 27.025581,38.696175 26.990038,39.732880 
	C27.451694,42.494221 27.913351,45.255562 27.639780,47.961700 
	C26.816799,47.644024 25.993820,47.326347 24.662571,46.812477 
	C25.363417,48.748936 25.851410,50.097282 25.998989,52.062672 
	C25.968946,53.368401 25.938904,54.674126 25.931179,56.700329 
	C26.988445,58.071484 28.045713,59.442642 28.912563,61.458965 
	C28.751999,62.967964 28.591434,64.476967 28.729361,66.519173 
	C28.804447,66.708527 28.879532,66.897873 28.812922,67.739120 
	C29.096718,69.245216 29.488384,70.742508 29.612514,72.261650 
	C29.663933,72.890923 29.142721,73.566978 28.881929,74.221764 
	C28.247597,73.826897 27.613264,73.432030 26.836649,72.370560 
	C24.878836,70.211723 22.933918,66.666100 20.393475,72.154755 
	C20.067911,72.012756 19.742348,71.870766 19.129072,71.221039 
	C18.761381,71.104073 18.393692,70.987114 17.757898,70.407280 
M23.610266,101.010910 
	C23.393547,100.565468 23.176828,100.120026 22.960104,99.674583 
	C22.752359,99.851486 22.345144,100.150208 22.367401,100.186646 
	C22.618984,100.598587 22.936390,100.970345 23.610266,101.010910 
M21.769125,89.423615 
	C21.944561,89.174004 22.119995,88.924400 22.295433,88.674789 
	C22.035589,88.834488 21.775747,88.994179 21.769125,89.423615 
M127.495163,99.526093 
	C127.495163,99.526093 127.523888,99.495087 127.495163,99.526093 
z"/>
<path fill="#FAFBFB" opacity="1.000000" stroke="none" 
	d="
M128.051743,97.124290 
	C126.872581,97.635414 125.693428,98.146538 123.923248,98.852287 
	C122.337273,99.477295 121.342316,99.907684 119.544205,100.685478 
	C121.581970,101.070366 122.803108,101.301018 124.024254,101.531662 
	C125.796791,102.072701 127.569321,102.613739 129.820618,103.417099 
	C131.875534,104.646194 133.451660,105.612961 135.027802,106.579727 
	C140.086945,112.186127 141.814758,119.021515 141.942352,126.299545 
	C142.128204,136.900940 141.606918,147.534454 142.259338,158.100418 
	C142.638916,164.247711 144.721863,170.289810 146.179901,177.052734 
	C146.273239,177.981720 146.225052,178.237183 146.176865,178.492645 
	C134.762680,178.363510 123.348488,178.234360 111.319489,177.775391 
	C109.831429,176.559738 108.958176,175.673889 108.084930,174.788025 
	C107.045471,170.143173 106.006012,165.498337 104.955017,159.980713 
	C104.954666,152.779907 104.993927,146.451736 104.967911,140.123840 
	C104.948059,135.295242 104.993629,130.459518 104.750107,125.640076 
	C104.175644,114.271080 100.111168,110.177010 88.672226,109.744484 
	C81.697182,109.480751 74.704041,109.695808 68.703705,109.695808 
	C67.475029,111.673378 66.316589,112.973160 65.806221,114.490860 
	C65.027893,116.805405 64.034584,119.356499 64.331604,121.651993 
	C64.785713,125.161514 66.361877,128.512955 67.257576,131.984177 
	C67.650269,133.506027 68.250031,135.652969 67.541420,136.669769 
	C63.124619,143.007446 62.915810,145.516815 67.108368,151.739029 
	C67.153595,152.229416 67.198830,152.719788 67.264160,153.854767 
	C65.876862,157.850388 64.461090,161.198059 63.115471,164.573715 
	C63.085102,164.649902 63.850853,165.043427 64.245247,165.288925 
	C64.585518,165.791718 64.925781,166.294510 65.609467,167.261871 
	C66.566681,168.347855 67.180458,168.969269 67.794235,169.590698 
	C67.925194,169.907349 68.056160,170.223984 68.477417,170.936096 
	C69.268806,171.870361 69.769897,172.409134 70.270988,172.947922 
	C70.494690,173.423508 70.718391,173.899078 70.833694,174.858673 
	C69.814659,175.916199 68.904022,176.489716 67.993385,177.063232 
	C66.636650,177.453506 65.279907,177.843765 63.773308,178.277130 
	C64.259293,179.521835 64.626503,180.462341 64.864388,181.071579 
	C59.568195,180.271164 54.415047,179.492371 48.967865,178.669128 
	C48.967865,180.204865 48.967865,181.406128 48.967865,183.615891 
	C45.115597,181.850403 41.734859,180.301025 37.799370,178.417633 
	C33.901352,176.981171 31.187584,175.386658 31.721806,171.165787 
	C31.738745,171.031952 31.207676,170.828766 30.932079,170.657913 
	C30.701969,170.229340 30.471857,169.800766 29.922428,168.771301 
	C29.128294,166.642838 28.653475,165.115280 28.178658,163.587723 
	C27.892818,162.963593 27.606976,162.339447 27.530575,161.303009 
	C27.541328,160.245163 27.342638,159.599609 27.143944,158.954056 
	C26.886200,158.709457 26.628456,158.464859 26.238365,157.674347 
	C27.172073,155.887024 28.238129,154.645615 29.462414,153.219940 
	C28.540653,153.136246 27.748028,153.064285 26.979309,152.655655 
	C26.643503,151.611237 26.283791,150.903503 25.924076,150.195755 
	C25.667288,149.995605 25.427486,149.776855 25.521658,149.308685 
	C26.436644,147.678452 27.034643,146.279007 27.632643,144.879578 
	C27.365576,144.137802 27.098509,143.396027 26.646542,142.013184 
	C26.729860,140.554733 26.998083,139.737381 27.266304,138.920013 
	C26.676918,137.152359 26.087530,135.384705 25.567350,133.286880 
	C25.759136,132.824158 25.881714,132.691620 26.004292,132.559067 
	C26.413145,132.765900 26.821999,132.972717 27.775414,133.448059 
	C29.200140,133.555618 30.080305,133.394669 30.960470,133.233719 
	C30.649935,132.714523 30.339399,132.195312 30.028866,131.676117 
	C29.697601,130.989563 29.366337,130.303009 28.860567,128.986816 
	C27.889708,126.789993 27.093349,125.222824 26.529045,123.437271 
	C26.911961,123.069321 27.062822,122.919754 27.406944,122.657394 
	C28.055445,119.884521 28.540487,117.228622 28.915358,114.557259 
	C28.949219,114.315948 28.272781,113.974968 27.926203,113.680275 
	C26.832859,112.278893 25.739517,110.877510 24.477839,108.796326 
	C26.190544,107.838486 29.024887,108.636711 27.885687,104.948891 
	C27.885687,104.948891 27.958933,104.952637 28.294493,104.877274 
	C29.453743,104.970894 30.277433,105.139877 31.101124,105.308861 
	C31.072859,104.468964 31.174227,103.599243 30.989344,102.795364 
	C30.604109,101.120338 30.067469,99.480133 29.593040,97.825615 
	C28.615042,95.115425 27.637041,92.405228 27.073261,89.304413 
	C27.017223,87.878372 26.546968,86.842949 26.076714,85.807533 
	C26.097488,85.453156 25.952015,85.191048 25.322491,84.676437 
	C24.344311,83.537712 23.683933,82.743759 23.248817,81.704544 
	C23.685066,79.795006 23.896057,78.130745 24.386631,76.628983 
	C25.078445,76.917686 25.490681,77.043884 25.920605,77.136612 
	C25.938292,77.103142 25.866486,77.079140 25.979942,77.323616 
	C26.470972,77.398964 26.848547,77.229843 27.624546,77.033539 
	C31.354021,78.037872 34.685074,79.069366 38.245350,80.171852 
	C37.123554,78.648781 36.139355,77.002769 34.855221,75.639236 
	C32.755451,73.409622 30.069437,71.559479 31.308437,67.527237 
	C32.679882,67.475555 33.751747,67.756195 34.823612,68.036842 
	C35.130043,67.592865 35.436474,67.148880 35.742905,66.704903 
	C33.529598,64.741196 31.316292,62.777493 29.102982,60.813797 
	C28.045713,59.442642 26.988445,58.071484 26.280663,56.350803 
	C27.694521,56.202187 28.758894,56.403091 31.145475,56.853569 
	C29.013002,54.454048 27.676203,52.949837 26.339401,51.445625 
	C25.851410,50.097282 25.363417,48.748936 24.662571,46.812477 
	C25.993820,47.326347 26.816799,47.644024 28.019760,47.974937 
	C28.399740,47.988171 28.397320,48.019550 28.546902,48.229378 
	C29.127827,48.603249 29.559174,48.767300 30.376835,49.006859 
	C31.512239,48.972054 32.261326,48.861732 33.637550,48.659054 
	C31.259319,45.121037 29.158535,41.995766 27.057751,38.870495 
	C27.025581,38.696175 26.993414,38.521851 26.915520,37.838104 
	C27.899509,35.218536 28.929228,33.108391 29.958944,30.998247 
	C29.567450,27.477571 29.175953,23.956898 28.659660,19.313929 
	C44.804188,19.313929 60.122402,19.313929 76.050201,19.691799 
	C78.933701,20.452433 81.207611,20.835196 83.481529,21.217958 
	C83.275002,20.588436 83.068481,19.958914 82.861954,19.329391 
	C84.578140,18.130039 86.294327,16.930687 88.010513,15.731333 
	C89.038139,16.446512 90.065773,17.161692 91.732605,17.951138 
	C92.918457,17.916031 93.465088,17.806660 94.011726,17.697285 
	C95.787216,18.214380 97.574783,18.693720 99.335648,19.256561 
	C102.824303,20.371672 106.330070,21.446594 109.763832,22.714045 
	C111.314903,23.286566 112.710541,24.280165 114.176697,25.082724 
	C114.467110,24.709476 114.757523,24.336229 115.047935,23.962982 
	C114.159355,22.771458 113.270782,21.579933 112.382202,20.388411 
	C112.511871,20.146175 112.641548,19.903942 112.771217,19.661709 
	C119.795494,24.159267 126.819771,28.656826 133.920471,33.821701 
	C136.589508,38.350952 139.182114,42.212891 141.774719,46.074825 
	C143.679718,48.106194 145.584702,50.137562 147.365555,52.597183 
	C147.383896,54.089306 147.465775,55.165901 147.685776,56.213490 
	C147.909286,57.277840 148.268997,58.313576 148.569077,59.361843 
	C145.822144,57.622807 143.075211,55.883774 139.843475,53.837818 
	C139.843475,56.331127 139.843475,58.326202 139.843475,60.321278 
	C139.396027,60.431820 138.948593,60.542362 138.501144,60.652905 
	C140.385468,62.710327 141.977997,65.189827 144.215347,66.736633 
	C148.765915,69.882675 147.866318,75.250458 150.026917,79.319977 
	C149.372147,79.548065 148.717377,79.776154 147.423553,79.621552 
	C145.677841,78.605515 144.571198,77.972160 142.530197,76.804047 
	C142.530197,80.662689 142.530197,83.714684 142.530197,86.766678 
	C142.155212,87.134804 141.780243,87.502930 140.981018,87.728333 
	C139.658691,88.038383 138.760590,88.491158 137.862488,88.943932 
	C135.637955,90.945030 133.413422,92.946129 130.677124,95.274017 
	C129.460831,96.108643 128.756287,96.616470 128.051743,97.124290 
M61.814610,70.346832 
	C61.371925,70.298355 60.929241,70.249878 60.486557,70.201401 
	C60.531021,70.472084 60.569473,70.975815 60.620888,70.977135 
	C61.098686,70.989464 61.578720,70.915344 61.544075,71.458221 
	C64.826019,75.733490 70.412857,79.126503 66.579323,86.218590 
	C75.313087,85.536003 83.541000,84.996704 91.745872,84.215408 
	C97.262856,83.690056 103.139694,81.955788 104.545013,76.334213 
	C106.239189,69.557159 106.714256,62.193798 106.117012,55.221294 
	C105.696495,50.312138 100.267738,49.090122 95.953644,47.117905 
	C86.142494,42.632664 76.171844,44.960163 65.862839,44.275658 
	C65.862839,50.331661 66.039070,55.640820 65.767342,60.926949 
	C65.672112,62.779484 64.475647,64.575409 63.782047,66.397186 
	C62.457882,67.751541 67.000771,70.108322 61.814610,70.346832 
M66.153633,173.829758 
	C66.239380,174.074997 66.325119,174.320221 66.410866,174.565460 
	C66.434471,174.228821 66.458069,173.892197 66.153633,173.829758 
M66.514137,109.975525 
	C66.588417,109.767349 66.662704,109.559181 66.736984,109.351006 
	C66.520279,109.418098 66.303566,109.485191 66.514137,109.975525 
z"/>
<path fill="#30363E" opacity="1.000000" stroke="none" 
	d="
M67.595016,151.800064 
	C62.915810,145.516815 63.124619,143.007446 67.541420,136.669769 
	C68.250031,135.652969 67.650269,133.506027 67.257576,131.984177 
	C66.361877,128.512955 64.785713,125.161514 64.331604,121.651993 
	C64.034584,119.356499 65.027893,116.805405 65.806221,114.490860 
	C66.316589,112.973160 67.475029,111.673378 68.703705,109.695808 
	C74.704041,109.695808 81.697182,109.480751 88.672226,109.744484 
	C100.111168,110.177010 104.175644,114.271080 104.750107,125.640076 
	C104.993629,130.459518 104.948059,135.295242 104.967911,140.123840 
	C104.993927,146.451736 104.954666,152.779907 104.813828,159.561707 
	C100.323135,161.662750 98.052048,160.330460 97.012939,155.591354 
	C95.459091,148.504608 89.321289,146.162903 82.357910,148.719162 
	C77.825493,150.383041 72.855576,150.855103 67.595016,151.800064 
z"/>
<path fill="#2F353C" opacity="1.000000" stroke="none" 
	d="
M27.549696,113.764030 
	C28.272781,113.974968 28.949219,114.315948 28.915358,114.557259 
	C28.540487,117.228622 28.055445,119.884521 27.285900,122.417725 
	C26.542645,122.284096 26.113688,122.277351 25.684734,122.270599 
	C25.888821,122.732285 26.092907,123.193970 26.296993,123.655655 
	C27.093349,125.222824 27.889708,126.789993 28.617744,128.688568 
	C25.860384,126.767242 20.310974,130.206146 19.455168,125.025223 
	C18.930363,121.848145 20.054386,118.397781 20.456802,115.072418 
	C20.470472,114.959450 20.687931,114.871140 21.325878,115.824577 
	C23.274981,115.165642 25.224085,114.506714 27.549696,113.764030 
z"/>
<path fill="#2F353C" opacity="1.000000" stroke="none" 
	d="
M30.614697,170.810806 
	C31.207676,170.828766 31.738745,171.031952 31.721806,171.165787 
	C31.187584,175.386658 33.901352,176.981171 37.478058,178.397980 
	C35.756950,179.211700 33.556404,180.514618 31.909084,180.010315 
	C29.769791,179.355438 28.070585,177.262970 26.181957,175.789261 
	C27.553745,174.180740 28.925529,172.572220 30.614697,170.810806 
z"/>
<path fill="#6B6C6E" opacity="1.000000" stroke="none" 
	d="
M31.008862,67.859566 
	C30.069437,71.559479 32.755451,73.409622 34.855221,75.639236 
	C36.139355,77.002769 37.123554,78.648781 38.245350,80.171852 
	C34.685074,79.069366 31.354021,78.037872 27.284229,77.011047 
	C26.319155,77.036865 26.092821,77.057999 25.866486,77.079140 
	C25.866486,77.079140 25.938292,77.103142 25.983765,76.770805 
	C26.345802,75.304703 26.662367,74.170929 26.978931,73.037163 
	C27.613264,73.432030 28.247597,73.826897 28.881929,74.221764 
	C29.142721,73.566978 29.663933,72.890923 29.612514,72.261650 
	C29.488384,70.742508 29.096718,69.245216 29.170521,67.432953 
	C29.713835,67.079498 29.899549,67.032211 30.045237,66.989853 
	C30.005209,66.994789 29.996080,66.914642 29.979380,67.256927 
	C30.336050,67.721825 30.709419,67.844452 31.038422,67.958000 
	C30.994057,67.948921 31.008862,67.859566 31.008862,67.859566 
z"/>
<path fill="#30363E" opacity="1.000000" stroke="none" 
	d="
M64.640106,165.198639 
	C63.850853,165.043427 63.085102,164.649902 63.115471,164.573715 
	C64.461090,161.198059 65.876862,157.850388 67.427849,154.186874 
	C72.797523,157.797516 72.100334,160.885345 64.640106,165.198639 
z"/>
<path fill="#2F353C" opacity="1.000000" stroke="none" 
	d="
M87.934158,15.396467 
	C86.294327,16.930687 84.578140,18.130039 82.861954,19.329391 
	C83.068481,19.958914 83.275002,20.588436 83.481529,21.217958 
	C81.207611,20.835196 78.933701,20.452433 76.427406,19.712341 
	C77.977280,19.161922 79.759537,18.968830 80.690773,18.867937 
	C81.579803,16.901163 81.906532,14.615265 83.033409,14.108441 
	C84.252121,13.560317 86.217888,14.673194 87.934158,15.396467 
z"/>
<path fill="#C5C8CB" opacity="1.000000" stroke="none" 
	d="
M141.769135,45.661755 
	C139.182114,42.212891 136.589508,38.350952 134.090454,34.108093 
	C137.626404,36.965145 142.699463,39.130383 141.769135,45.661755 
z"/>
<path fill="#4C4E53" opacity="1.000000" stroke="none" 
	d="
M26.907791,72.703857 
	C26.662367,74.170929 26.345802,75.304703 25.966076,76.804276 
	C25.490681,77.043884 25.078445,76.917686 24.404720,76.449356 
	C23.989996,75.846954 23.781139,75.789680 23.315289,75.668289 
	C22.377111,74.372574 21.640303,73.343979 20.903492,72.315384 
	C22.933918,66.666100 24.878836,70.211723 26.907791,72.703857 
z"/>
<path fill="#CACBCE" opacity="1.000000" stroke="none" 
	d="
M26.955402,152.992325 
	C27.748028,153.064285 28.540653,153.136246 29.462414,153.219940 
	C28.238129,154.645615 27.172073,155.887024 26.090317,157.452484 
	C24.805286,157.032410 23.535957,156.288269 22.054680,154.963150 
	C20.903040,153.585358 19.963350,152.788544 19.023659,151.991730 
	C19.023657,151.991730 18.948027,151.503784 19.322214,151.191925 
	C20.149757,150.787094 20.603115,150.694122 21.056473,150.601166 
	C21.219175,150.659637 21.381876,150.718124 21.905457,151.223404 
	C23.829359,152.110886 25.392380,152.551605 26.955402,152.992325 
z"/>
<path fill="#4E5155" opacity="1.000000" stroke="none" 
	d="
M29.007774,61.136379 
	C31.316292,62.777493 33.529598,64.741196 35.742905,66.704903 
	C35.436474,67.148880 35.130043,67.592865 34.823612,68.036842 
	C33.751747,67.756195 32.679882,67.475555 31.308437,67.527237 
	C31.008862,67.859566 30.994057,67.948921 31.244837,67.550446 
	C30.995771,67.072861 30.495926,66.993752 29.996080,66.914642 
	C29.996080,66.914642 30.005209,66.994789 30.017643,66.569122 
	C29.497009,66.090958 28.963940,66.038460 28.430870,65.985962 
	C28.591434,64.476967 28.751999,62.967964 29.007774,61.136379 
z"/>
<path fill="#D0D2D4" opacity="1.000000" stroke="none" 
	d="
M16.588991,72.676140 
	C14.590992,70.877060 12.592994,69.077988 10.259102,66.767189 
	C9.960665,65.509003 9.998121,64.762543 10.035578,64.016075 
	C12.360879,65.881317 14.686181,67.746552 16.948503,70.511009 
	C16.786680,71.832199 16.687836,72.254166 16.588991,72.676140 
z"/>
<path fill="#3C4046" opacity="1.000000" stroke="none" 
	d="
M27.023895,39.301689 
	C29.158535,41.995766 31.259319,45.121037 33.637550,48.659054 
	C32.261326,48.861732 31.512239,48.972054 30.292992,48.730949 
	C29.347662,48.259533 28.872490,48.139542 28.397320,48.019550 
	C28.397320,48.019550 28.399740,47.988171 28.387375,48.002537 
	C27.913351,45.255562 27.451694,42.494221 27.023895,39.301689 
z"/>
<path fill="#30363E" opacity="1.000000" stroke="none" 
	d="
M142.734558,86.398369 
	C142.530197,83.714684 142.530197,80.662689 142.530197,76.804047 
	C144.571198,77.972160 145.677841,78.605515 147.022919,79.565826 
	C145.820541,81.938538 144.379730,83.984291 142.734558,86.398369 
z"/>
<path fill="#C5C8CB" opacity="1.000000" stroke="none" 
	d="
M148.734726,59.651001 
	C148.268997,58.313576 147.909286,57.277840 147.685776,56.213490 
	C147.465775,55.165901 147.383896,54.089306 147.558685,52.901688 
	C149.323563,55.256176 150.771149,57.734417 152.218719,60.212662 
	C151.784180,60.506596 151.349625,60.800533 150.915085,61.094467 
	C150.243515,60.709698 149.571945,60.324928 148.734726,59.651001 
z"/>
<path fill="#D0D2D4" opacity="1.000000" stroke="none" 
	d="
M23.516659,75.935410 
	C23.781139,75.789680 23.989996,75.846954 24.125139,76.286850 
	C23.896057,78.130745 23.685066,79.795006 22.977581,81.608444 
	C22.021351,81.423325 21.561613,81.089035 21.101875,80.754753 
	C20.795309,79.399017 20.488741,78.043289 20.549770,76.334198 
	C21.783796,75.965706 22.650227,75.950554 23.516659,75.935410 
z"/>
<path fill="#2F353C" opacity="1.000000" stroke="none" 
	d="
M9.741913,63.845833 
	C9.998121,64.762543 9.960665,65.509003 9.956482,66.629189 
	C7.833341,65.001587 5.676926,63.000271 3.520510,60.998951 
	C3.919580,60.543816 4.318649,60.088680 4.717719,59.633545 
	C6.294562,60.980892 7.871405,62.328239 9.741913,63.845833 
z"/>
<path fill="#46494F" opacity="1.000000" stroke="none" 
	d="
M26.169195,51.754150 
	C27.676203,52.949837 29.013002,54.454048 31.145475,56.853569 
	C28.758894,56.403091 27.694521,56.202187 26.269505,55.990566 
	C25.938904,54.674126 25.968946,53.368401 26.169195,51.754150 
z"/>
<path fill="#2F353C" opacity="1.000000" stroke="none" 
	d="
M29.256342,98.070251 
	C30.067469,99.480133 30.604109,101.120338 30.989344,102.795364 
	C31.174227,103.599243 31.072859,104.468964 31.101124,105.308861 
	C30.277433,105.139877 29.453743,104.970894 28.287540,104.841263 
	C28.269901,102.692047 28.594772,100.503471 29.256342,98.070251 
z"/>
<path fill="#30363E" opacity="1.000000" stroke="none" 
	d="
M135.030365,106.209602 
	C133.451660,105.612961 131.875534,104.646194 130.126953,103.419495 
	C132.975082,100.627411 134.124283,101.233849 135.030365,106.209602 
z"/>
<path fill="#2F353C" opacity="1.000000" stroke="none" 
	d="
M29.616405,31.058479 
	C28.929228,33.108391 27.899509,35.218536 26.708790,37.670883 
	C24.028797,34.359627 27.433243,33.048344 29.616405,31.058479 
z"/>
<path fill="#FAFBFB" opacity="1.000000" stroke="none" 
	d="
M23.315289,75.668289 
	C22.650227,75.950554 21.783796,75.965706 20.482880,75.979980 
	C19.016123,75.035645 17.983852,74.092186 16.770287,72.912430 
	C16.687836,72.254166 16.786680,71.832199 17.082525,70.789078 
	C17.438982,70.247711 17.598440,70.327492 18.061741,70.870636 
	C18.715984,71.465584 19.066383,71.597176 19.416784,71.728767 
	C19.742348,71.870766 20.067911,72.012756 20.648483,72.235069 
	C21.640303,73.343979 22.377111,74.372574 23.315289,75.668289 
z"/>
<path fill="#2F353C" opacity="1.000000" stroke="none" 
	d="
M21.016369,81.087234 
	C21.561613,81.089035 22.021351,81.423325 22.752323,81.853706 
	C23.683933,82.743759 24.344311,83.537712 25.090942,84.631523 
	C23.438038,84.931381 21.698881,84.931381 19.402809,84.931381 
	C20.087551,83.357758 20.509205,82.388741 21.016369,81.087234 
z"/>
<path fill="#2F353C" opacity="1.000000" stroke="none" 
	d="
M27.555702,105.014450 
	C29.024887,108.636711 26.190544,107.838486 24.161472,108.576813 
	C23.799746,108.368210 23.263098,107.214989 23.423906,107.107765 
	C24.613138,106.314804 25.941263,105.730156 27.555702,105.014450 
z"/>
<path fill="#414449" opacity="1.000000" stroke="none" 
	d="
M27.275171,144.987091 
	C27.034643,146.279007 26.436644,147.678452 25.494263,149.066589 
	C22.812050,146.428589 25.543049,146.064285 27.275171,144.987091 
z"/>
<path fill="#2F353C" opacity="1.000000" stroke="none" 
	d="
M28.035473,163.908142 
	C28.653475,165.115280 29.128294,166.642838 29.617048,168.560059 
	C29.051420,167.376022 28.471857,165.802292 28.035473,163.908142 
z"/>
<path fill="#414449" opacity="1.000000" stroke="none" 
	d="
M26.979309,152.655655 
	C25.392380,152.551605 23.829359,152.110886 22.141293,151.331268 
	C23.136631,150.859497 24.257013,150.726608 25.650738,150.394745 
	C26.283791,150.903503 26.643503,151.611237 26.979309,152.655655 
z"/>
<path fill="#414449" opacity="1.000000" stroke="none" 
	d="
M20.989643,150.288742 
	C20.603115,150.694122 20.149757,150.787094 19.353678,150.947052 
	C18.433441,150.332352 17.855930,149.650665 17.278418,148.968994 
	C17.536577,148.643280 17.794737,148.317566 18.052895,147.991852 
	C19.009535,148.653351 19.966175,149.314850 20.989643,150.288742 
z"/>
<path fill="#30363E" opacity="1.000000" stroke="none" 
	d="
M108.059082,175.162827 
	C108.958176,175.673889 109.831429,176.559738 110.852753,177.721710 
	C107.728645,179.931595 108.244820,177.295685 108.059082,175.162827 
z"/>
<path fill="#2F353C" opacity="1.000000" stroke="none" 
	d="
M18.823700,152.214874 
	C19.963350,152.788544 20.903040,153.585358 21.866760,154.694290 
	C20.801773,154.150284 19.712755,153.294159 18.823700,152.214874 
z"/>
<path fill="#30363E" opacity="1.000000" stroke="none" 
	d="
M124.030869,101.223938 
	C122.803108,101.301018 121.581970,101.070366 119.544205,100.685478 
	C121.342316,99.907684 122.337273,99.477295 123.668167,99.058372 
	C124.015221,99.685295 124.026352,100.300758 124.030869,101.223938 
z"/>
<path fill="#414449" opacity="1.000000" stroke="none" 
	d="
M26.979969,138.941223 
	C26.998083,139.737381 26.729860,140.554733 26.370453,141.717926 
	C26.417389,141.029984 26.555511,139.996216 26.979969,138.941223 
z"/>
<path fill="#AAAFB2" opacity="1.000000" stroke="none" 
	d="
M68.104034,177.388168 
	C68.904022,176.489716 69.814659,175.916199 70.950424,175.097824 
	C72.435814,178.132690 69.949608,177.534027 68.104034,177.388168 
z"/>
<path fill="#30363E" opacity="1.000000" stroke="none" 
	d="
M70.417137,172.573471 
	C69.769897,172.409134 69.268806,171.870361 68.709084,171.057343 
	C69.168709,170.513443 69.686966,170.243805 70.205231,169.974152 
	C70.324577,170.715775 70.443932,171.457397 70.417137,172.573471 
z"/>
<path fill="#2F353C" opacity="1.000000" stroke="none" 
	d="
M29.629841,131.865814 
	C30.339399,132.195312 30.649935,132.714523 30.960470,133.233719 
	C30.080305,133.394669 29.200140,133.555618 28.119873,133.471497 
	C28.356783,132.836105 28.793798,132.445801 29.629841,131.865814 
z"/>
<path fill="#2F353C" opacity="1.000000" stroke="none" 
	d="
M23.423208,101.181885 
	C22.936390,100.970345 22.618984,100.598587 22.367401,100.186646 
	C22.345144,100.150208 22.752359,99.851486 22.960106,99.674583 
	C23.176828,100.120026 23.393547,100.565468 23.423208,101.181885 
z"/>
<path fill="#2F353C" opacity="1.000000" stroke="none" 
	d="
M26.055374,86.134766 
	C26.546968,86.842949 27.017223,87.878372 27.107983,88.908203 
	C26.497004,88.089073 26.265518,87.275543 26.055374,86.134766 
z"/>
<path fill="#30363E" opacity="1.000000" stroke="none" 
	d="
M138.205261,88.953918 
	C138.760590,88.491158 139.658691,88.038383 140.777542,87.795837 
	C140.181549,88.325340 139.364792,88.644623 138.205261,88.953918 
z"/>
<path fill="#30363E" opacity="1.000000" stroke="none" 
	d="
M67.792969,169.222443 
	C67.180458,168.969269 66.566681,168.347855 65.884415,167.400223 
	C66.474525,167.667404 67.133110,168.260803 67.792969,169.222443 
z"/>
<path fill="#CACBCE" opacity="1.000000" stroke="none" 
	d="
M27.066929,159.228897 
	C27.342638,159.599609 27.541328,160.245163 27.455536,160.964874 
	C27.110674,160.527267 27.050293,160.015503 27.066929,159.228897 
z"/>
<path fill="#2F353C" opacity="1.000000" stroke="none" 
	d="
M93.912415,17.426748 
	C93.465088,17.806660 92.918457,17.916031 92.110374,17.928482 
	C92.503654,17.606445 93.158379,17.381327 93.912415,17.426748 
z"/>
<path fill="#30363E" opacity="1.000000" stroke="none" 
	d="
M146.368744,178.596497 
	C146.225052,178.237183 146.273239,177.981720 146.428864,177.351364 
	C146.888870,177.368317 147.241470,177.760147 147.594055,178.151978 
	C147.249573,178.334747 146.905106,178.517532 146.368744,178.596497 
z"/>
<path fill="#30363E" opacity="1.000000" stroke="none" 
	d="
M128.439804,97.269958 
	C128.756287,96.616470 129.460831,96.108643 130.486359,95.526886 
	C130.147507,96.107178 129.487686,96.761398 128.439804,97.269958 
z"/>
<path fill="#2F353C" opacity="1.000000" stroke="none" 
	d="
M25.933899,132.329620 
	C25.881714,132.691620 25.759136,132.824158 25.369219,132.999954 
	C24.981472,132.544022 24.861063,132.044861 24.740654,131.545685 
	C25.114937,131.730515 25.489222,131.915359 25.933899,132.329620 
z"/>
<path fill="#2F353C" opacity="1.000000" stroke="none" 
	d="
M21.642513,89.288742 
	C21.775747,88.994179 22.035589,88.834488 22.295431,88.674789 
	C22.119995,88.924400 21.944561,89.174004 21.642513,89.288742 
z"/>
<path fill="#D0D2D4" opacity="1.000000" stroke="none" 
	d="
M19.272928,71.474899 
	C19.066383,71.597176 18.715984,71.465584 18.195793,71.102074 
	C18.393692,70.987114 18.761381,71.104073 19.272928,71.474899 
z"/>
<path fill="#FAFBFB" opacity="1.000000" stroke="none" 
	d="
M28.580116,66.252563 
	C28.963940,66.038460 29.497009,66.090958 30.057671,66.564178 
	C29.899549,67.032211 29.713835,67.079498 29.241367,67.107010 
	C28.879532,66.897873 28.804447,66.708527 28.580116,66.252563 
z"/>
<path fill="#FAFBFB" opacity="1.000000" stroke="none" 
	d="
M127.509521,99.510590 
	C127.523888,99.495087 127.495163,99.526093 127.509521,99.510590 
z"/>
<path fill="#32373F" opacity="1.000000" stroke="none" 
	d="
M61.988552,71.009743 
	C67.000771,70.108322 62.457882,67.751541 63.782047,66.397186 
	C64.475647,64.575409 65.672112,62.779484 65.767342,60.926949 
	C66.039070,55.640820 65.862839,50.331661 65.862839,44.275658 
	C76.171844,44.960163 86.142494,42.632664 95.953644,47.117905 
	C100.267738,49.090122 105.696495,50.312138 106.117012,55.221294 
	C106.714256,62.193798 106.239189,69.557159 104.545013,76.334213 
	C103.139694,81.955788 97.262856,83.690056 91.745872,84.215408 
	C83.541000,84.996704 75.313087,85.536003 66.579323,86.218590 
	C70.412857,79.126503 64.826019,75.733490 61.786812,71.199631 
	C62.029549,70.941032 61.988552,71.009743 61.988552,71.009743 
z"/>
<path fill="#32373F" opacity="1.000000" stroke="none" 
	d="
M62.043827,70.903671 
	C61.578720,70.915344 61.098686,70.989464 60.620888,70.977135 
	C60.569473,70.975815 60.531021,70.472084 60.486557,70.201401 
	C60.929241,70.249878 61.371925,70.298355 61.901581,70.678284 
	C61.988552,71.009743 62.029549,70.941032 62.043827,70.903671 
z"/>
<path fill="#282F37" opacity="1.000000" stroke="none" 
	d="
M28.546902,48.229378 
	C28.872490,48.139542 29.347662,48.259533 29.906675,48.655434 
	C29.559174,48.767300 29.127827,48.603249 28.546902,48.229378 
z"/>
<path fill="#AAAFB2" opacity="1.000000" stroke="none" 
	d="
M66.317657,173.692657 
	C66.458069,173.892197 66.434471,174.228821 66.410866,174.565460 
	C66.325119,174.320221 66.239380,174.074997 66.317657,173.692657 
z"/>
<path fill="#A3A4A7" opacity="1.000000" stroke="none" 
	d="
M66.300499,109.763908 
	C66.303566,109.485191 66.520279,109.418098 66.736984,109.351006 
	C66.662704,109.559181 66.588417,109.767349 66.300499,109.763908 
z"/>
<path fill="#4C4E53" opacity="1.000000" stroke="none" 
	d="
M25.979942,77.323616 
	C26.092821,77.057999 26.319155,77.036865 26.885807,77.038223 
	C26.848547,77.229843 26.470972,77.398964 25.979942,77.323616 
z"/>
<path fill="#FAFBFB" opacity="1.000000" stroke="none" 
	d="
M26.529047,123.437271 
	C26.092907,123.193970 25.888821,122.732285 25.684734,122.270599 
	C26.113688,122.277351 26.542645,122.284096 27.092644,122.530518 
	C27.062822,122.919754 26.911961,123.069321 26.529047,123.437271 
z"/>
<path fill="#FAFBFB" opacity="1.000000" stroke="none" 
	d="
M29.979380,67.256927 
	C30.495926,66.993752 30.995771,67.072861 31.289204,67.559525 
	C30.709419,67.844452 30.336050,67.721825 29.979380,67.256927 
z"/>
</svg>